<svg version="1.1" xmlns="http://www.w3.org/2000/svg" width="20" height="27" viewBox="0 0 759 1024">
<path fill="#000" d="M7.486 24.364c-4.143 2.368-7.399 7.695-7.547 12.43 0 4.587 3.847 11.69 7.251 13.614 3.995 2.072 740.624 2.072 744.62 0 3.255-1.924 7.251-9.027 7.251-13.318 0-4.883-3.847-11.098-8.139-13.022-5.919-2.812-738.405-2.516-743.436 0.296z"></path>
<path fill="#000" d="M-0.061 155.471v16.277l38.918 0.296 38.77 0.444 0.444 154.932 0.296 155.080h34.035v-310.751h76.948v-32.555h-189.41v16.277z"></path>
<path fill="#000" d="M239.662 310.847v171.653h35.514v-159.815h19.089l61.706 79.908 61.854 79.908h42.617l-5.031-6.363c-12.134-14.946-118.086-151.972-118.086-152.712 0-0.444 3.551-0.74 7.843-0.74 10.506 0 30.779-2.516 42.469-5.327 38.622-9.323 64.37-39.954 67.477-80.351 3.403-44.245-25.156-82.867-68.217-92.486-18.349-3.995-41.729-5.327-95.001-5.327h-52.236v171.653zM373.581 175.3c26.932 7.547 40.842 21.309 45.133 45.281 3.108 17.461-2.516 36.106-15.094 49.72-14.502 15.686-40.25 20.717-96.925 18.941l-31.519-1.036v-116.754l44.837 0.74c35.514 0.444 46.465 1.184 53.568 3.108z"></path>
<path fill="#000" d="M506.020 144.669c1.776 3.108 26.488 43.357 54.899 89.526l51.644 83.903v164.402h34.035v-163.958l53.42-87.75c29.447-48.24 53.716-88.638 54.16-89.674 0.592-1.48-3.403-1.924-18.497-1.924h-19.237l-42.617 70.289c-23.528 38.622-43.209 70.289-43.653 70.289s-20.421-31.667-44.393-70.289l-43.505-70.141-19.681-0.148h-19.829l3.255 5.475z"></path>
<path fill="#000" d="M188.018 553.677c-65.702 7.695-123.117 53.568-145.905 116.754-10.062 28.264-13.614 64.37-9.027 92.486 11.838 71.769 62.298 127.704 130.96 145.165 79.76 20.273 160.999-11.838 202.432-80.203 37.142-61.262 33.443-145.757-9.027-202.876-38.178-51.348-103.584-78.872-169.434-71.325zM247.208 590.967c65.258 16.869 109.355 74.284 109.355 142.354 0 67.329-40.842 122.821-104.324 142.206-12.282 3.699-15.242 4.143-39.954 4.143-31.223 0.148-40.398-1.776-65.11-13.91-37.586-18.349-64.666-51.496-75.764-92.486-3.551-13.318-3.995-17.313-3.847-39.214 0-26.34 1.776-35.958 10.21-57.267 18.201-45.429 59.487-79.168 108.319-88.49 16.573-3.108 43.061-1.924 61.114 2.664z"></path>
<path fill="#000" d="M461.627 733.321v172.393h34.035l0.296-130.368 0.444-130.368 113.202 130.368c97.813 112.462 113.794 130.22 117.346 130.22l3.995 0.148v-344.786h-34.035v131.847c0 82.127-0.592 131.403-1.332 130.812-0.888-0.444-52.088-59.783-114.090-131.699-92.338-107.431-113.202-130.96-116.162-130.96h-3.699v172.393z"></path>
<path fill="#000" d="M5.414 975.855c-6.955 6.363-7.103 15.686-0.296 22.492l3.551 3.551h741.66l3.551-3.551c6.807-6.807 6.659-16.129-0.296-22.492l-3.847-3.551h-740.476l-3.847 3.551z"></path>
</svg>
